<svg xmlns="http://www.w3.org/2000/svg" width="800" height="800" viewBox="0 0 32 32" fill="#fff" xmlns:v="https://vecta.io/nano"><path d="M2.585 17.413a2 2 0 0 1 0-2.826L14.587 2.585a2 2 0 0 1 2.826 0l12.001 12.001a2 2 0 0 1 0 2.826L17.413 29.415a2 2 0 0 1-2.826 0L2.585 17.413z" fill="#ee513b"/><path d="M12.149 5.062l-1.215 1.215 3.139 3.139c-.127.272-.198.576-.198.897 0 .91.572 1.686 1.375 1.989v7.679c-.803.303-1.375 1.079-1.375 1.989 0 1.174.951 2.125 2.125 2.125s2.125-.951 2.125-2.125c0-.825-.47-1.54-1.156-1.892v-7.765l3.001 3.001c-.121.267-.188.563-.188.875 0 1.174.951 2.125 2.125 2.125s2.125-.951 2.125-2.125-.951-2.125-2.125-2.125c-.228 0-.448.036-.654.102l-3.222-3.222c.062-.199.095-.411.095-.63 0-1.174-.951-2.125-2.125-2.125-.219 0-.431.033-.63.095l-3.221-3.221z" fill="#fff"/></svg>