<svg xmlns="http://www.w3.org/2000/svg" width="800" height="800" viewBox="0 0 256 256" preserveAspectRatio="xMidYMid" xmlns:v="https://vecta.io/nano"><path d="M0 0h256v256H0V0z" fill="#f7df1e"/><path d="M67.312 213.932l19.591-11.856c3.779 6.701 7.218 12.371 15.464 12.371 7.905 0 12.889-3.092 12.889-15.12v-81.798h24.057v82.138c0 24.917-14.606 36.259-35.915 36.259-19.245 0-30.416-9.967-36.087-21.996m85.07-2.576l19.588-11.342c5.157 8.421 11.858 14.607 23.715 14.607 9.968 0 16.325-4.984 16.325-11.858 0-8.248-6.53-11.17-17.528-15.98l-6.013-2.58c-17.357-7.388-28.871-16.667-28.871-36.258 0-18.044 13.747-31.792 35.228-31.792 15.294 0 26.292 5.328 34.196 19.247l-18.731 12.028c-4.124-7.389-8.591-10.309-15.464-10.309-7.046 0-11.514 4.468-11.514 10.309 0 7.218 4.468 10.14 14.778 14.608l6.014 2.577c20.45 8.765 31.963 17.699 31.963 37.804 0 21.654-17.012 33.51-39.867 33.51-22.339 0-36.775-10.654-43.819-24.574"/></svg>