<svg xmlns="http://www.w3.org/2000/svg" fill="#fff" height="800" width="800" viewBox="0 0 512 512" xmlns:v="https://vecta.io/nano"><path d="M501.801 139.942H171.312a10.2 10.2 0 0 0-10.199 10.199v19.235h-97.21a10.2 10.2 0 0 0-10.199 10.199 10.2 10.2 0 0 0 10.199 10.199h97.21v132.452h-58.101a10.2 10.2 0 0 0-10.199 10.199 10.2 10.2 0 0 0 10.199 10.199h58.101v19.235a10.2 10.2 0 0 0 10.199 10.199h330.489A10.2 10.2 0 0 0 512 361.859V150.141a10.2 10.2 0 0 0-10.199-10.199zm-25.16 20.398l-140.07 114.985L197.14 160.34h279.501zm14.961 191.321h-310.09v-177.77l148.556 122.51c1.884 1.553 4.186 2.331 6.489 2.331a10.18 10.18 0 0 0 6.471-2.316L491.602 174.45v177.211zM119.673 244.768H10.199A10.2 10.2 0 0 0 0 254.967a10.2 10.2 0 0 0 10.199 10.199h109.474a10.2 10.2 0 0 0 10.199-10.199 10.2 10.2 0 0 0-10.199-10.199zm-50.318 77.459h-5.451a10.2 10.2 0 0 0-10.199 10.199 10.2 10.2 0 0 0 10.199 10.199h5.451a10.2 10.2 0 0 0 10.199-10.199 10.2 10.2 0 0 0-10.199-10.199z"/></svg>