<svg xmlns="http://www.w3.org/2000/svg" width="800" height="800" viewBox="0 0 256 256" preserveAspectRatio="xMidYMid" xmlns:v="https://vecta.io/nano"><path fill="#007acc" d="M0 128v128h128 128V128 0H128 0z"/><path d="M56.611 128.849l-.081 10.484h16.66 16.66v47.34 47.34h11.784 11.784v-47.34-47.34h16.66 16.66v-10.281c0-5.689-.122-10.443-.284-10.565-.122-.163-20.399-.244-44.983-.203l-44.739.122-.122 10.443zm149.956-10.741c6.502 1.625 11.459 4.51 16.01 9.224 2.357 2.519 5.851 7.111 6.136 8.208.081.325-11.053 7.802-17.798 11.987-.244.163-1.219-.894-2.316-2.519-3.291-4.795-6.745-6.867-12.028-7.233-7.761-.528-12.759 3.535-12.719 10.321 0 1.991.284 3.17 1.097 4.795 1.707 3.535 4.876 5.648 14.832 9.956 18.326 7.883 26.169 13.084 31.045 20.48 5.445 8.249 6.664 21.415 2.966 31.208-4.063 10.646-14.141 17.879-28.323 20.277-4.389.772-14.791.65-19.505-.203-10.281-1.829-20.033-6.908-26.047-13.572-2.357-2.601-6.949-9.387-6.664-9.874.122-.163 1.178-.813 2.357-1.503l9.509-5.486 7.355-4.267 1.544 2.276c2.154 3.291 6.867 7.802 9.712 9.305 8.168 4.307 19.383 3.698 24.909-1.26 2.357-2.154 3.332-4.389 3.332-7.68 0-2.966-.366-4.267-1.91-6.502-1.991-2.844-6.055-5.242-17.595-10.24-13.206-5.689-18.895-9.224-24.097-14.832-3.007-3.251-5.851-8.452-7.03-12.8-.975-3.617-1.219-12.678-.447-16.335 2.723-12.759 12.353-21.658 26.25-24.3 4.51-.853 14.994-.528 19.423.569z" fill="#fff"/></svg>